<?xml version="1.0" encoding="UTF-8" standalone="no"?>
<svg
   id="Calque_1"
   data-name="Calque 1"
   viewBox="0 0 48.72 55.67"
   version="1.1"
   sodipodi:docname="Control_icon_white.svg"
   inkscape:version="1.1.2 (b8e25be833, 2022-02-05)"
   xmlns:inkscape="http://www.inkscape.org/namespaces/inkscape"
   xmlns:sodipodi="http://sodipodi.sourceforge.net/DTD/sodipodi-0.dtd"
   xmlns="http://www.w3.org/2000/svg"
   xmlns:svg="http://www.w3.org/2000/svg">
  <defs
     id="defs7">
    <filter
       style="color-interpolation-filters:sRGB;"
       inkscape:label="Fade to Black or White"
       id="filter826"
       x="0"
       y="0"
       width="1"
       height="1">
      <feColorMatrix
         values="0 0 0 0 1 0 0 0 0 1 0 0 0 0 1 0 0 0 1 0"
         id="feColorMatrix824" />
    </filter>
  </defs>
  <sodipodi:namedview
     id="namedview5"
     pagecolor="#ffffff"
     bordercolor="#666666"
     borderopacity="1.0"
     inkscape:pageshadow="2"
     inkscape:pageopacity="0.0"
     inkscape:pagecheckerboard="0"
     showgrid="false"
     inkscape:zoom="15.394288"
     inkscape:cx="24.392164"
     inkscape:cy="27.867479"
     inkscape:window-width="1920"
     inkscape:window-height="1017"
     inkscape:window-x="-8"
     inkscape:window-y="-8"
     inkscape:window-maximized="1"
     inkscape:current-layer="Calque_1" />
  <path
     d="m48.58,24.08L25.17.32c-.18-.18-.46-.18-.65,0L5.17,19.07c-.3.29-.09.79.32.79h6.41c.25,0,.46-.21.46-.46v-3.55c0-.39.46-.6.76-.35l11.33,9.65c.22.18.21.52,0,.7l-11.33,9.38c-.3.25-.75.03-.75-.35v-3.57c0-.25-.21-.46-.46-.46H.46c-.41,0-.61.49-.32.78l23.89,23.89c.18.18.47.18.65,0l17.89-17.89c.29-.29.08-.78-.32-.78h-5.44c-.25,0-.46.21-.46.46v3.5c0,.4-.47.61-.77.34l-10.86-10c-.2-.18-.2-.49,0-.68l10.86-9.92c.29-.27.77-.06.77.34v3.5c0,.25.21.46.46.46h11.45c.41,0,.61-.49.33-.78Z"
     id="path2"
     style="filter:url(#filter826)" />
</svg>
