<?xml version="1.0" encoding="UTF-8"?>
<svg id="Calque_2" data-name="Calque 2" xmlns="http://www.w3.org/2000/svg" viewBox="0 0 55.5 38">
  <defs>
    <style>
      .cls-1, .cls-2 {
        stroke: #000;
        stroke-miterlimit: 10;
      }

      .cls-2 {
        fill:;
      }
    </style>
  </defs>
  <g id="Calque_1-2" data-name="Calque 1">
    <g>
      <path d="m.7,27.55s.07.08.11.13l-.16-.2c.05.07.1.14.15.22.27.45.91.65,1.37.36.11-.07.21-.12.33-.17l-.24.1c.11-.05.23-.09.35-.12.13-.03.26-.04.38-.08.31-.09.57-.27.86-.39l-1.37-1.37s-.05.07-.08.11l.16-.2c-.18.23-.39.44-.62.63h1.41l-.02-.02.16.2v-.02c.02.08.05.16.09.24v-.02c-.04-.13-.1-.24-.19-.34-.07-.11-.16-.19-.28-.26-.21-.13-.53-.18-.77-.1s-.48.23-.6.46-.2.53-.1.77c.08.19.14.36.3.5.18.17.45.3.71.29l.27-.04c.17-.05.32-.13.44-.26.34-.27.61-.59.86-.94l.1-.24c.04-.13.05-.27.02-.4-.03-.21-.11-.43-.28-.57-.13-.12-.28-.2-.44-.26-.13-.04-.27-.05-.4-.02-.13,0-.26.05-.37.12-.17.07-.32.18-.49.25l.24-.1c-.2.08-.43.09-.64.16-.27.08-.55.2-.79.35l1.37.36c-.12-.2-.26-.38-.42-.55-.17-.18-.46-.29-.71-.29s-.54.11-.71.29-.3.44-.29.71.11.51.29.71h0Z"/>
      <g>
        <polygon class="cls-1" points="3 3.5 26.69 3.5 26.69 22.21 3 22.5 3 3.5"/>
        <g>
          <path class="cls-2" d="m31.34.5h7.8c.48,0,.92.25,1.16.66l3.31,5.67c.24.41.68.66,1.16.66h7.68c.36,0,.7.14.95.39l1.22,1.22c.25.25.39.59.39.95v17.17c0,.57-.46,1.03-1.03,1.03h-.02c-.28,0-.55-.11-.74-.31l-5.81-6.03c-.25-.26-.6-.41-.96-.41h-7.75c-.36,0-.7.14-.96.4l-5.84,5.95c-.25.26-.6.4-.96.4h-.93v-.83l-5.65.06c-.75,0-1.35-.59-1.35-1.34h0c0-.74.6-1.34,1.34-1.34h4.32c.74,0,1.34-.6,1.34-1.34V1.84c0-.74.6-1.34,1.34-1.34Z"/>
          <polygon class="cls-2" points="32 3.5 32 9.45 42.59 9.45 39.49 3.5 32 3.5"/>
        </g>
        <polygon class="cls-2" points=".5 25.65 5.35 25.65 2.92 28.37 .5 28.37 .5 25.65"/>
        <ellipse class="cls-2" cx="13" cy="32" rx="7" ry="5.5"/>
        <ellipse class="cls-2" cx="43" cy="32" rx="7" ry="5.5"/>
        <ellipse class="cls-2" cx="42.87" cy="32.24" rx="4.13" ry="3.26"/>
        <ellipse class="cls-2" cx="12.74" cy="32.11" rx="4.13" ry="3.26"/>
        <path d="m19.41,31.76c-.04-.8-.44-1.35-.92-1.96-.41-.51-.84-1-1.36-1.41s-1.12-.62-1.69-.94c-.71-.39-1.43-.43-2.22-.53s-1.49-.23-2.22.09c-.26.11-.5.25-.77.35-.34.13-.68.23-.99.42-.61.37-1.07.91-1.48,1.48-.19.27-.42.58-.52.9-.05.17-.06.36-.04.53,0,.09.02.17.05.25.11.36.15.32.1-.12-.6,1.14,1.13,2.15,1.73,1.01.29-.55.22-1.03.06-1.53v.53c.05-.29.43-.7.63-.92.26-.28.53-.46.9-.59.39-.14.78-.42,1.18-.52.22-.05.53.03.75.05.3.03.6.07.9.11.47.05.72.13,1.13.34s.86.35,1.24.64c.33.25.6.57.87.89.18.21.64.63.65.93.07,1.28,2.07,1.29,2,0h0Z"/>
        <path d="m8.11,27.84c-.98,1.02-1.74,2.36-1.93,3.77-.11.79,0,1.57.51,2.21.21.27.45.48.7.7.09.08.22.22.28.28.06.07.07.11.09.28l1.23-1.23c-.14-.04-.04.01-.1-.04-.13-.1.12.14-.07-.09l-1.21,1.57c.98.65,2.06,1.03,3.17,1.37l.27-1.96c-.41,0-.83,0-1.24,0-.54,0-1,.46-1,1s.46.97,1,1c1.14.06,2.28.13,3.42.19.54.03,1-.48,1-1,0-.57-.46-.97-1-1-1.14-.06-2.28-.13-3.42-.19v2c.41,0,.83,0,1.24,0,1.14,0,1.34-1.63.27-1.96-.96-.3-1.85-.61-2.69-1.17-.41-.27-1.01-.12-1.29.26-.31.42-.26.93.08,1.31.27.32.65.54,1.06.64.8.21,1.34-.49,1.23-1.23-.1-.64-.55-1.14-1.01-1.55-.18-.16-.38-.32-.46-.47-.09-.17-.1-.32-.07-.6.1-.94.71-1.96,1.39-2.67.37-.39.39-1.03,0-1.41s-1.04-.39-1.41,0h0Z"/>
        <path d="m11.3,37.25c1.65.09,3.48.12,4.9-.86.72-.49,1.31-1.13,1.79-1.85.51-.76.98-1.71.9-2.65-.04-.54-.43-1-1-1-.51,0-1.04.46-1,1,.05.67.04,1.42-.2,1.99-.05.13-.28.49-.34.56-.07.08-.23.23-.26.25.03-.03-.1.06-.12.07-.02.01-.21.11-.1.07l.77,1.83c1.52-1.16,3.25-2.66,3-4.79-.06-.54-.42-1-1-1-.49,0-1.06.46-1,1,.07.64-.1,1.14-.5,1.67s-.98.98-1.52,1.39c-.4.3-.63.75-.41,1.25.18.41.71.77,1.18.58,1.99-.81,2.64-2.86,2.5-4.87h-2c.05.6-.32,1.2-.67,1.7s-.77.93-1.24,1.21-1.07.43-1.58.48c-.7.06-1.41.03-2.11-.01-.54-.03-1,.48-1,1,0,.57.46.97,1,1h0Z"/>
        <path d="m20.01,31.72c.28-.8-.33-1.43-.86-1.92-.39-.37-.81-.72-1.23-1.05-.9-.7-1.84-1.34-2.85-1.88l-.77,1.83c.11.04.21.08.32.12.12.04-.17-.08,0,0,.05.02.09.04.14.06.22.1.43.22.64.34.2.12.39.24.57.37.04.03.08.06.12.09.1.07-.14-.11,0,0,.1.08.2.16.29.24.39.34,1.03.42,1.41,0,.35-.38.42-1.05,0-1.41-.88-.77-1.87-1.35-2.98-1.75-.47-.17-1,.15-1.18.58s-.03,1.01.41,1.25c.84.45,1.64.96,2.4,1.53.04.03.09.06.13.1-.06-.05-.1-.08-.02-.01.09.07.19.15.28.22.18.15.36.3.54.46s.35.32.52.48c.08.08.17.16.25.24.09.09.02.02-.02-.03.06.11.05.08,0-.1-.04-.1-.06-.2-.04-.3-.17.49.2,1.12.7,1.23.56.13,1.05-.17,1.23-.7h0Z"/>
        <path d="m46.38,36.57c.47-.28.95-.58,1.35-.95s.72-.84,1.02-1.29c.61-.93,1.02-2.05.74-3.17-.15-.59-.54-1.26-1.18-1.4-.81-.18-1.49.39-1.72,1.13-.09.31-.14.64-.06.95.13.48.57.86,1.08.86.4,0,.8-.19,1-.55.17-.32.17-.68.2-1.03.03-.37.05-.7-.1-1.05-.12-.28-.33-.51-.53-.73-.45-.47-1.04-.84-1.72-.81-.52.02-1.02.44-1,1,.02.52.44,1.02,1,1,.11,0,.12,0,.04-.01-.07-.01-.06,0,.04.02-.09-.04-.1-.04-.04,0,.04.02.08.05.11.07-.11-.08,0,.01.05.06.07.07.13.14.19.21.08.09.07.15.03.03-.03-.09-.03-.26-.05-.08-.02.12-.02.25-.03.37v.12c-.04.21-.01.17.07-.14l.36-.36-.05.03.5-.14h-.07c.17.04.34.09.5.13l.1.07.26.44c-.02.29-.01.35.02.17.04-.11.04-.13,0-.04-.15.23-.35.25-.61.07-.39-.2-.52-.2-.38-.02.05.11.06.11.01.02.02.06.04.12.05.18.06.19.02-.1.01.11,0,.04-.03.42,0,.22-.02.1-.04.19-.06.28-.08.28-.1.3-.24.55-.24.43-.51.84-.8,1.15-.07.08-.15.15-.23.22-.09.08-.11.09-.05.04-.06.04-.12.08-.18.12-.21.14-.42.27-.64.4-.45.27-.65.91-.36,1.37s.89.65,1.37.36h0Z"/>
        <path d="m46.7,29.69c.46.05.85.38,1.08.76l1.13-1.47c-.44-.1-.89-.2-1.31-.37s-.69-.44-1.05-.68c-.4-.27-.88-.31-1.32-.5-.24-.11-.45-.24-.71-.3-.28-.06-.52,0-.8.04-.48.05-.97-.02-1.45,0-.58.03-1.16.12-1.73.23-1.06.2-2.59.45-2.32,1.88.1.53.74.83,1.23.7.56-.15.8-.7.7-1.23l-.02-.09-.1.77c-.36.21-.4.26-.11.16.12-.03.24-.06.35-.09.24-.06.47-.11.71-.16.39-.08.79-.15,1.19-.17s.79.02,1.18.01c.25,0,.52,0,.76-.06.27-.03.22-.06-.15-.09.06.03.12.06.18.09.39.19.82.27,1.21.45.28.13.52.38.79.55.68.41,1.46.61,2.22.79.83.2,1.59-.7,1.13-1.47-.62-1.04-1.62-1.62-2.8-1.75-.54-.06-1,.5-1,1,0,.59.46.94,1,1h0Z"/>
        <path d="m39.43,28.18c-.24-.04-.43-.06-.66-.03-.29.04-.56.16-.76.38-.22.24-.35.55-.5.84-.26.48-.52.97-.77,1.45-.13.23-.17.51-.1.77.06.23.24.48.46.6.23.12.51.18.77.1.24-.08.47-.23.6-.46.19-.36.38-.71.57-1.07.09-.18.19-.36.28-.53.09-.16.16-.34.27-.49l-.16.2s.03-.03.04-.04l-.2.16s.03-.02.05-.03l-.24.1s.06-.02.09-.03l-.27.04c.07,0,.13,0,.2,0l-.27-.04s.04,0,.06.01c.27.05.52.04.77-.1.21-.12.41-.36.46-.6.06-.26.05-.54-.1-.77-.13-.21-.35-.42-.6-.46h0Z"/>
        <path d="m40.87,28.86l2.74.04c.43,0,.85,0,1.28.03.1,0,.2.01.3.02.03,0,.31.04.13.01.23.04.46.09.69.15.5.15,1.11-.18,1.23-.7s-.16-1.07-.7-1.23c-.92-.27-1.88-.28-2.83-.3l-2.85-.04c-.52,0-1.02.46-1,1s.44.99,1,1h0Z"/>
        <path d="m36.69,29.67c-.24,1.15-.6,2.34-.36,3.52.22,1.05.92,1.99,1.83,2.55.45.27,1.12.11,1.37-.36s.12-1.08-.36-1.37c-.04-.03-.33-.21-.1-.05-.08-.05-.15-.13-.22-.2s-.14-.14-.2-.22c-.07-.09-.06-.08.02.03-.03-.04-.06-.08-.08-.12-.05-.08-.1-.17-.15-.26-.03-.06-.15-.24-.02-.03-.1-.15-.12-.39-.16-.57-.02-.11-.02-.1,0,.05,0-.05,0-.1-.01-.15,0-.12,0-.23,0-.35,0-.02.04-.32,0-.1.02-.12.04-.24.06-.37.1-.49.2-.98.3-1.46s-.15-1.1-.7-1.23c-.5-.11-1.12.15-1.23.7h0Z"/>
        <path d="m38.11,33.96c1.29,0,1.29-2,0-2s-1.29,2,0,2h0Z"/>
        <path d="m39.43,36.84c.14,0,.27,0,.41,0-.17-.02.2.05.24.05.27.06.53.14.8.21.55.13,1.12.21,1.69.25.52.03,1.03.01,1.54-.05.71-.09,1.28-.24,1.73-.85.31-.42.09-1.13-.36-1.37-.52-.28-1.04-.09-1.37.36.24-.2.28-.25.14-.16.12-.05.13-.05.02-.02-.08.01-.15.03-.23.05-.23.04.07,0-.14.02-.14.01-.27.02-.41.03-.45.02-.89,0-1.34-.04-.33-.03.18.04-.14-.02-.12-.02-.24-.04-.35-.06-.22-.04-.44-.1-.65-.16-.51-.14-1.04-.26-1.58-.24s-1.03.44-1,1c.02.52.44,1.03,1,1h0Z"/>
        <path d="m24.24,27.07c2.2.15,4.41.18,6.61.1.52-.02,1.02-.45,1-1-.02-.53-.44-1.02-1-1-2.2.08-4.41.05-6.61-.1-.52-.04-1.02.49-1,1,.03.57.44.96,1,1h0Z"/>
        <path d="m29.74,26.78c.21.02.42-.02.63-.05.13-.02.26-.06.38-.11.19-.08.38-.16.56-.28s.34-.25.48-.41c.1-.09.17-.2.21-.32.06-.12.09-.25.09-.39,0-.14-.02-.27-.09-.39-.04-.12-.11-.23-.21-.32-.19-.17-.44-.3-.71-.29s-.53.09-.71.29c-.07.08-.14.15-.23.21l.2-.16c-.11.08-.23.15-.36.21l.24-.1c-.13.06-.27.1-.42.12l.27-.04c-.11.01-.22.02-.33,0-.14,0-.27.02-.39.09-.12.04-.23.11-.32.21-.1.09-.17.2-.21.32-.06.12-.09.25-.09.39.01.26.1.53.29.71l.2.16c.16.09.32.14.5.14h0Z"/>
        <path d="m31.44,27.96c.87-.91,1.64-1.92,2.29-2.99.27-.45.12-1.12-.36-1.37s-1.08-.12-1.37.36c-.32.53-.67,1.04-1.05,1.53l.16-.2c-.34.44-.7.86-1.08,1.25-.36.38-.4,1.04,0,1.41s1.03.4,1.41,0h0Z"/>
        <path d="m30.22,10.64c.01,4.7-.69,9.39-.13,14.08.06.54.41.99,1,1,.49,0,1.06-.46,1-1-.56-4.69.14-9.38.13-14.08,0-1.29-2-1.29-2,0h0Z"/>
        <path d="m31.84,25.3c-.05.06-.09.11-.01.02.04-.05.08-.1.12-.14.08-.09.15-.17.24-.25.07-.07.15-.14.22-.21.05-.04.1-.08.15-.12.11-.09-.19.14,0,0,.42-.31.67-.88.36-1.37s-.88-.63-1.37-.36-.8.86-.77,1.43.36,1.07.77,1.46c.24.22.52.32.84.28s.53-.22.73-.48c.64-.85,1.28-1.69,1.92-2.53l-1.83-.24c-.04-.14-.03-.26.03-.37.03-.06.03-.07,0-.02-.03.05-.07.11-.1.16-.08.11-.17.22-.25.33-.17.22-.35.45-.52.67-.37.48-.7.92-.9,1.5-.16.47.15,1,.58,1.18.49.21.95,0,1.25-.41.11-.15.22-.3.34-.45-.14.18.01-.01.04-.05.07-.08.13-.17.2-.25.22-.27.45-.54.68-.8.49-.54,1-1.06,1.54-1.55.39-.35.39-1.06,0-1.41-.41-.38-1-.38-1.41,0-1.16,1.06-2.19,2.24-3.12,3.51l1.83.77c.08-.24-.1.17.02-.05.03-.06.06-.11.09-.17.07-.12.16-.24.24-.35.18-.24.37-.48.56-.73s.39-.48.56-.73c.28-.39.37-.85.26-1.31-.09-.38-.46-.67-.83-.72-.43-.06-.74.15-1,.48-.65.84-1.29,1.68-1.92,2.53l1.57-.2s-.07-.07-.11-.1c-.02-.02-.14-.18-.07-.06s0-.03-.03-.05c-.03-.05-.03-.04,0,.02.03.08.03.07,0-.01v-.06c0,.05,0,.1.01.15-.01-.13,0,.05-.02.09.03-.15-.04.09-.08.14-.03.03-.24.18-.11.12l-1.01-1.73c-.56.41-1.02.87-1.44,1.42-.15.19-.16.55-.1.77.06.23.24.48.46.6.23.12.51.18.77.1s.43-.24.6-.46h0Z"/>
        <path d="m34.1,25.49c1.8-2.36,3.99-4.59,6.33-6.5.42-.34.35-1.06,0-1.41-.41-.41-.99-.34-1.41,0-2.49,2.03-4.7,4.35-6.65,6.9-.33.43-.07,1.12.36,1.37.51.3,1.04.07,1.37-.36h0Z"/>
        <path d="m37.42,21.35c2.22.13,4.45.08,6.66-.16.52-.06,1.03-.42,1-1-.02-.49-.44-1.06-1-1-2.21.24-4.44.29-6.66.16-.52-.03-1.02.48-1,1,.03.57.44.97,1,1h0Z"/>
        <path d="m44.08,21.07c1.08-.13,2.09-.05,3.13.25,1.13.33,1.69-1.22.77-1.83-3.52-2.35-7.66-3.61-11.89-3.67v2c3.6.01,7.2.05,10.8.11l-.5-1.86c-1.61.93-3.26,1.79-4.93,2.59-1.08.52-.28,2.03.77,1.83l3.01-.58c1.1-.21.86-2.04-.27-1.96-2.58.17-5.17.25-7.76.23l.27,1.96c1.52-.55,3.1-.78,4.7-.97l-.27-1.96c-1.53.6-3.06,1.2-4.6,1.8l-.56.22c-.33.13-.59.07-.1.35.44.26.32.12.39-.26.03-.19.07-.39.1-.58.15-.82.29-1.65.44-2.47.18-1.02-1.33-1.88-1.83-.77-.81,1.8-1.61,3.6-2.42,5.4l1.86.5c-.08-1.66.38-3.31.71-4.93.15-.76-.71-1.69-1.47-1.13s-1.12,1.29-1.51,2.13c-.43.92-.83,1.86-1.2,2.8l1.83-.24c-.25-.47-.22-1.18-.28-1.7-.08-.63-.15-1.26-.23-1.89-.15-1.26-1.89-1.31-2,0-.22,2.76-.27,5.53-.14,8.3.05,1.14,1.6,1.34,1.96.27.31-.92.57-1.85.75-2.8.15-.79.11-1.66.61-2.33.16-.22.37-.55.61-.69.36-.22,1.09-.26,1.5-.35,1-.23,2.01-.47,3.01-.7l-.53-1.93c-.76.3-1.51.61-2.27.91-.62.25-1.3.38-1.56,1.07-.18.48.2,1.13.7,1.23.35.07.58.03.89-.12,1.17-.54.15-2.26-1.01-1.73l-.06.03.77-.1h-.06c.23.4.47.81.7,1.22v-.03c-.22.23-.46.47-.69.7,1.04-.42,2.08-.84,3.12-1.26,1.17-.47.75-2.23-.53-1.93-1.2.28-2.41.56-3.61.85-.49.11-1,.19-1.43.45-.39.24-.69.62-.98.98-.67.84-.85,1.59-1.01,2.63-.18,1.15-.48,2.28-.85,3.38l1.96.27c-.13-2.77-.08-5.54.14-8.3h-2c.1.82.2,1.65.3,2.47.09.74.13,1.46.49,2.13.45.83,1.53.51,1.83-.24.27-.69.56-1.38.88-2.06.23-.49.46-1.34.92-1.68l-1.47-1.13c-.36,1.79-.87,3.62-.78,5.46.04.9,1.43,1.48,1.86.5.81-1.8,1.61-3.6,2.42-5.4l-1.83-.77c-.21,1.16-.42,2.33-.62,3.49-.15.89-.14,2.05,1,2.23.49.08.94-.17,1.39-.35l1.67-.66,3.34-1.31c.47-.18.79-.57.72-1.1-.06-.44-.49-.93-.98-.87-1.77.22-3.54.44-5.23,1.04-1.03.37-.91,1.95.27,1.96,2.59.02,5.18-.05,7.76-.23l-.27-1.96-3.01.58.77,1.83c1.68-.8,3.32-1.66,4.93-2.59.87-.5.48-1.85-.5-1.86-3.6-.06-7.2-.1-10.8-.11-1.29,0-1.29,1.98,0,2,3.89.05,7.64,1.24,10.88,3.4l.77-1.83c-1.19-.35-2.42-.47-3.66-.32s-1.28,2.15,0,2h0Z"/>
        <path d="m32,11.6c4.13.08,8.3-.53,12.41.11l.27-1.96c-4.44.15-8.86.56-13.25,1.22-1.19.18-.77,1.87.27,1.96,5.21.49,10.39-.83,15.61-.41l-.27-1.96c-3.29.52-6.58,1.03-9.86,1.55-1.12.18-.84,1.99.27,1.96,2.75-.07,5.5-.15,8.25-.22l-.27-1.96c-3.22.91-6.62.79-9.87,1.53-1.12.25-.85,1.95.27,1.96,3.92.04,7.84.29,11.74.75v-2c-2.19.19-4.38.37-6.57.56-1.26.11-1.31,1.99,0,2l2.12.02c1.29.01,1.29-1.98,0-2-3.26-.05-6.51-.3-9.76-.57-1.11-.09-1.39,1.8-.27,1.96-.04-.38-.17-.47-.38-.26l1.37.36c-.73-1.15-1.02-2.37-.9-3.72l-1.96.27c.4,1.22.72,2.46.95,3.73.22,1.2,1.85.76,1.96-.27.15-1.38.37-2.75.64-4.11h-1.93c.06.21.12.42.17.63.13.48.73.9,1.23.7.85-.34,1.72-.49,2.63-.32l-.24-1.83c-.77.55-1.53,1.1-2.3,1.65-.88.63-.39,2.15.77,1.83.79-.22,1.58-.44,2.37-.66l-.77-1.83c-.91.44-1.86.71-2.86.88l.53,1.93c2.05-.79,4.15-1.47,6.29-2.01s4.38-1.08,6.62-.92l-.86-1.5c-.79,1.07-1.38,2.23-1.84,3.48-.34.92,1.04,1.72,1.67.97.95-1.12,1.85-2.27,2.72-3.46l-1.86-.5c.13,1.4.21,2.8.24,4.21.03,1.28,2.03,1.29,2,0-.03-1.41-.11-2.81-.24-4.21-.09-1.02-1.27-1.32-1.86-.5-.77,1.05-1.57,2.06-2.41,3.05l1.67.97c.4-1.08.96-2.07,1.64-3,.49-.66-.19-1.45-.86-1.5-2.3-.17-4.62.36-6.85.91s-4.44,1.25-6.59,2.08c-1.21.47-.74,2.13.53,1.93,1.17-.19,2.27-.56,3.34-1.08s.3-2.13-.77-1.83c-.79.22-1.58.44-2.37.66l.77,1.83c.77-.55,1.53-1.1,2.3-1.65.62-.45.69-1.66-.24-1.83-1.26-.23-2.49-.16-3.69.32l1.23.7c-.06-.21-.12-.42-.17-.63-.25-.91-1.73-1-1.93,0-.3,1.54-.53,3.08-.71,4.64l1.96-.27c-.23-1.27-.54-2.51-.95-3.73-.36-1.1-1.86-.85-1.96.27-.15,1.67.27,3.32,1.17,4.73.29.46.88.64,1.37.36.67-.38,1.25-1.02,1.22-1.85-.03-.74-.57-1.45-1.31-1.55l-.27,1.96c3.25.27,6.5.52,9.76.57v-2l-2.12-.02v2c2.19-.19,4.38-.37,6.57-.56,1.3-.11,1.27-1.85,0-2-3.9-.46-7.81-.72-11.74-.75l.27,1.96c3.26-.73,6.65-.61,9.87-1.53,1.07-.3.88-2-.27-1.96-2.75.07-5.5.15-8.25.22l.27,1.96c3.29-.52,6.58-1.03,9.86-1.55,1.18-.19.78-1.88-.27-1.96-5.21-.43-10.39.89-15.61.41l.27,1.96c4.21-.63,8.46-1,12.72-1.14,1.07-.04,1.43-1.78.27-1.96-4.3-.67-8.62-.09-12.94-.18-1.29-.02-1.29,1.98,0,2h0Z"/>
        <path d="m47.29,15.28c.04,1.03,0,2.05-.11,3.07l1.86-.5c-.66-1.35-1.12-2.76-1.43-4.23l-1.93.53c.48,1.75,1,3.49,1.56,5.21l1.83-.77c-.43-.86-.99-1.63-1.67-2.31-.46-.46-1.24-.34-1.57.2-.55.9-.4,2.18.45,2.85.63.49,1.75.25,1.71-.71-.01-.37-.09-.68-.29-1l-1.73,1.01c1.14,1.79,4.49,3.07,5.95.96.6-.87.57-1.99.41-2.99-.2-1.32-.67-2.57-1.14-3.81-.38-1-1.99-.94-1.96.27.04,2.04.14,4.09.3,6.12l1.96-.27c-.5-2.54-.92-5.1-1.25-7.67-.16-1.26-1.88-1.31-2,0-.26,2.83-.2,5.67.16,8.49.16,1.25,1.9,1.31,2,0,.17-2.35.37-4.69,1.13-6.94h-1.93c.33,2.3.66,4.59.98,6.89.07.49.66.78,1.1.72.52-.08.81-.47.87-.98.17-1.63.24-3.29.66-4.88h-1.93c.21,1.43.37,2.87.49,4.32.11,1.3,1.87,1.28,2,0,.2-1.91.4-3.82.61-5.74h-2l.12,3.85c.03,1.07,1.76,1.42,1.96.27.31-1.81.47-3.64.4-5.48-.03-.89-.17-1.69-.65-2.45s-.91-1.2-1.82-1.3c-.85-.09-1.7-.15-2.54-.22s-1.78-.23-2.66-.22c-1.65.03-2.78,1.44-2.46,3.06.09.45.55.7.96.73,1.18.09,2.37.18,3.55.27.57.04,1.15.09,1.72.13.29.02.57.04.86.07.15.01.48.04.51.06l-.36-.36c0-.27-.03-.29-.08-.08-.04.12-.09.24-.13.35-.07.18-.16.36-.24.54-.21.43-.45.83-.71,1.23h1.73c-.58-.97-.55-2.11-.54-3.2,0-.4-.31-.9-.73-.96-.69-.11-1.39-.22-2.08-.33-.53-.09-1.08.14-1.23.7-.13.48.16,1.14.7,1.23.69.11,1.39.22,2.08.33l-.73-.96c-.02,1.45.04,2.93.81,4.21.4.66,1.32.63,1.73,0,.54-.83,1.08-1.78,1.33-2.74.29-1.12-.43-1.87-1.5-1.97-2.22-.22-4.45-.34-6.68-.51l.96.73c-.17-.86,1.55-.45,1.92-.42.31.03,3.82.29,3.82.34,0-.06-.21-.07-.18-.1,0,0,.2.3.22.32.15.23.29.46.35.72.14.57.1,1.21.09,1.79,0,1.33-.12,2.66-.34,3.97l1.96.27-.12-3.85c-.04-1.31-1.87-1.26-2,0-.2,1.91-.4,3.82-.61,5.74h2c-.13-1.62-.32-3.24-.56-4.85-.15-1.01-1.7-.89-1.93,0-.46,1.76-.54,3.61-.73,5.41l1.96-.27c-.33-2.3-.66-4.59-.98-6.89-.06-.43-.57-.73-.96-.73-.46,0-.82.31-.96.73-.81,2.41-1.01,4.95-1.2,7.47h2c-.37-2.82-.42-5.66-.16-8.49h-2c.35,2.75.79,5.48,1.32,8.2.21,1.1,2.05.86,1.96-.27-.16-2.04-.26-4.08-.3-6.12l-1.96.27c.32.85.64,1.7.88,2.58.18.67.38,1.42.28,2.12-.21,1.38-2.27.31-2.72-.4-.69-1.08-2.41-.09-1.73,1.01h.01c.57-.25,1.14-.48,1.71-.72-.18-.14-.26-.22-.14-.43l-1.57.2c.56.57,1,1.19,1.36,1.91.5,1.01,2.18.31,1.83-.77-.56-1.73-1.08-3.46-1.56-5.21-.34-1.25-2.19-.72-1.93.53.34,1.64.9,3.21,1.63,4.71.19.39.73.57,1.13.46.46-.13.69-.52.73-.96.11-1.02.15-2.04.11-3.07-.05-1.28-2.05-1.29-2,0h0Z"/>
        <path d="m45.92,9.18c.45-.37.87-.29,1.09.06-.11-.18.07.18,0,0-.11-.26-.19-.46-.37-.67-.29-.34-.71-.48-1.14-.51-.24-.02-.49.02-.72.03-.2.01.23.05.03,0-.08-.03-.07-.02.01,0,.09.04.09.04.01-.01-.15-.13-.33-.22-.52-.27-.12-.03-.28-.05-.4-.06-.2-.01.19.07,0,0,.05.02.3.21.2.1l.09.11s-.04-.07-.06-.1c.04.01.09.23,0,.01-.02-.06-.05-.11-.07-.17-.07-.18-.14-.35-.25-.51-.18-.25-.38-.48-.59-.71-.04-.05-.08-.1-.12-.14-.06-.07.13.19,0,0-.02-.03-.03-.05-.05-.08-.04-.07-.04-.07,0,.01.02.17-.02-.07-.03-.11-.11-.51-.73-.86-1.23-.7-.54.17-.82.68-.7,1.23.09.42.33.76.6,1.08.1.11.2.22.3.33.03.03.06.06.08.1.07.08.06.06-.04-.05,0,.01.1.14.11.16.02.04.04.07.06.11-.06-.15-.07-.17-.03-.07.02.06.04.12.07.17.11.28.2.48.39.7.17.2.4.36.66.44.11.04.22.05.33.06.07.01.13.02.2.02-.15-.03-.17-.03-.06,0-.24-.08-.08-.02-.01.03.13.09.23.14.4.2.19.07.4.1.6.1.14,0,.29-.01.43-.03.06,0,.12,0,.18,0,.04,0,.08,0,.12,0-.17-.03-.21-.03-.1,0-.15-.07-.18-.09-.12-.05.06.04.03.02-.09-.07-.09-.12-.1-.14-.05-.04-.06-.14-.07-.16-.03-.06.11.27.2.5.42.71s.49.34.78.38c.41.05.73-.08,1.04-.34.4-.34.37-1.07,0-1.41-.43-.39-.98-.36-1.41,0h0Z"/>
        <path d="m44.28,9.53h1.62c.26.02.53-.1.71-.28s.3-.46.29-.71-.1-.53-.29-.71-.44-.29-.71-.29h-1.62c-.26-.02-.53.1-.71.28s-.3.46-.29.71.1.53.29.71.44.29.71.29h0Z"/>
        <path d="m31.72,9.84l.05-3.12.02-1.53c0-.24,0-.47.01-.71,0-.04.03-.3,0-.13.01-.06.03-.13.05-.19-.04.09-.03.09.03-.01.3-.43.09-1.13-.36-1.37-.51-.27-1.05-.1-1.37.36-.34.49-.35,1.1-.36,1.67l-.02,1.65-.05,3.36c0,.52.47,1.02,1,1s.99-.44,1-1h0Z"/>
        <path d="m32.04,2.98v-.54c0-.07.08-.49,0-.27l-.26.44.06-.06-.71.29c-.23.01.33.08.4.09.26.04.51.06.77.05.52,0,1.05-.04,1.57-.07,1.06-.05,2.12-.09,3.18-.14.24-.01.48-.02.72-.03.19,0,.56-.09.74-.02-.17-.07.14.17.16.19.16.16.31.33.47.49.57.62,1.1,1.28,1.33,2.11.34,1.24,2.27.71,1.93-.53s-1.18-2.29-2.08-3.24c-.44-.46-.87-.88-1.51-.99-.7-.12-1.46,0-2.16.03-1.44.06-2.89.17-4.33.19-.66,0-1.31-.38-1.88.14-.5.47-.39,1.21-.4,1.84-.01,1.29,1.99,1.29,2,0h0Z"/>
        <path d="m32.61,3.65c2.1.19,4.21.26,6.32.2.52-.02,1.02-.45,1-1s-.44-1.02-1-1c-2.11.06-4.22,0-6.32-.2-.52-.05-1.02.49-1,1,.03.58.44.95,1,1h0Z"/>
        <path d="m46.89,21.08c.48.69,1.03,1.32,1.67,1.87.6.51,1.19.99,1.71,1.58.48.55.92,1.15,1.46,1.65.26.24.55.44.81.67.06.05.12.1.17.16.02.02.18.2.1.1-.04-.05-.04-.04.02.04l-.03-.08.02.08c-.01-.13-.02-.13-.02,0-.03.52.48,1.02,1,1,.57-.03.97-.44,1-1,.05-.88-.56-1.51-1.2-2.01s-1.12-1.08-1.62-1.68-1.07-1.15-1.69-1.66-1.24-1.11-1.67-1.73c-.31-.44-.88-.65-1.37-.36-.44.26-.67.92-.36,1.37h0Z"/>
        <path d="m54.85,27.2c-.07-3.24-.14-6.48.02-9.72.04-.89-1.11-1.28-1.71-.71-.82.79-1.63,1.57-2.45,2.36-.53.51-1.22,1.41-2.01,1.5l.86,1.5c.41-.65,1.25-1.28,2.06-1.19l-.5-.14c-.17-.41-.24-.5-.22-.26,0,.09,0,.19.01.28,0,.16.01.32.02.47.02.35.03.7.05,1.04.03.7.06,1.39.09,2.09l1.96-.27c-.44-1.49-1.29-2.83-2.48-3.83-.41-.35-1.01-.41-1.41,0-.36.36-.42,1.07,0,1.41.94.79,1.62,1.77,1.97,2.95.31,1.05,2.02.89,1.96-.27-.04-.95-.08-1.9-.13-2.85-.04-.89.11-2.19-.94-2.56-.77-.27-1.73.07-2.42.43-.73.38-1.32.97-1.76,1.66-.38.6.1,1.59.86,1.5,1.24-.14,2.13-.84,3.01-1.68.96-.92,1.91-1.84,2.87-2.76l-1.71-.71c-.16,3.24-.09,6.48-.02,9.72.03,1.29,2.03,1.29,2,0h0Z"/>
      </g>
    </g>
  </g>
</svg>