<?xml version="1.0" encoding="UTF-8" standalone="no"?>
<svg
   id="Calque_2"
   data-name="Calque 2"
   viewBox="0 0 53.97 46.04"
   version="1.1"
   sodipodi:docname="Hybrid_icon_white.svg"
   inkscape:version="1.1.2 (b8e25be833, 2022-02-05)"
   xmlns:inkscape="http://www.inkscape.org/namespaces/inkscape"
   xmlns:sodipodi="http://sodipodi.sourceforge.net/DTD/sodipodi-0.dtd"
   xmlns="http://www.w3.org/2000/svg"
   xmlns:svg="http://www.w3.org/2000/svg">
  <sodipodi:namedview
     id="namedview60"
     pagecolor="#ffffff"
     bordercolor="#666666"
     borderopacity="1.0"
     inkscape:pageshadow="2"
     inkscape:pageopacity="0.0"
     inkscape:pagecheckerboard="0"
     showgrid="false"
     inkscape:zoom="18.614248"
     inkscape:cx="26.99545"
     inkscape:cy="23.046862"
     inkscape:window-width="1920"
     inkscape:window-height="1017"
     inkscape:window-x="-8"
     inkscape:window-y="-8"
     inkscape:window-maximized="1"
     inkscape:current-layer="Calque_2" />
  <defs
     id="defs4">
    <style
       id="style2">
      .cls-1 {
        stroke: #050505;
      }

      .cls-1, .cls-2, .cls-3 {
        stroke-miterlimit: 10;
      }

      .cls-2, .cls-3 {
        stroke: #000;
      }

      .cls-3 {
        fill: none;
      }
    </style>
    <filter
       style="color-interpolation-filters:sRGB;"
       inkscape:label="Fade to Black or White"
       id="filter879"
       x="-0.0093205171"
       y="-0.011101243"
       width="1.0131221"
       height="1.0222025">
      <feColorMatrix
         values="0 0 0 0 1 0 0 0 0 1 0 0 0 0 1 0 0 0 1 0"
         id="feColorMatrix877" />
    </filter>
  </defs>
  <g
     id="Calque_1-2"
     data-name="Calque 1"
     style="filter:url(#filter879)">
    <polygon
       class="cls-1"
       points="36.4 14.31 31.07 30.7 35.39 30.7 38.9 26.45 41.53 25.64 46.45 25.64 49.22 26.92 52.79 30.7 53.47 30.7 53.47 15.39 51.91 15.39 51.85 14.31 45.91 14.31 42.88 9.25 38.16 9.25 38.16 10.06 42.27 10 44.83 14.25 36.4 14.31"
       id="polygon6" />
    <path
       class="cls-3"
       d="m28.3,14.81c-1.76-5.19-7.97-11.61-16.61-8.77C7.07,7.38,2.58,11.08,1.07,16.38c-2.97,10.32,6.46,17.1,10.15,18.55l3.19,5.17h1.79l2.95-5.26,1.29-.74,7.85-19.29Z"
       id="path8" />
    <polygon
       class="cls-3"
       points="6.42 19.98 15.01 11.02 24.15 19.98 15.29 29.39 6.42 19.98"
       id="polygon10" />
    <polygon
       class="cls-2"
       points="35.87 .5 38.36 .5 22.39 45.54 19.99 45.54 35.87 .5"
       id="polygon12" />
    <path
       d="m51.29,23.42l-.11,5.31c-.01.52.47,1.02,1,1s.99-.44,1-1l.11-5.31c.01-.52-.47-1.02-1-1s-.99.44-1,1h0Z"
       id="path14" />
    <path
       d="m52.8,30.41c1.29,0,1.29-2,0-2s-1.29,2,0,2h0Z"
       id="path16" />
    <path
       d="m13.66,8.9c-2.57,1.9-5.24,3.68-8,5.31-.1.06-.48.21-.52.31.07-.17.54-.03.68.12s.09.25.06.02c-.04-.28,0,.2,0-.09,0-.07.05-.4,0-.15.02-.1.05-.19.08-.29.11-.37.25-.73.31-1.11.05-.31.11-.68.09-.99.06-.16.05-.18-.02-.06l.1-.11c.14-.13.28-.27.43-.39.54-.43,1.13-.78,1.66-1.21.42-.34.35-1.06,0-1.41-.41-.41-.99-.34-1.41,0-.98.8-2.47,1.4-2.7,2.79-.05.32-.03.65-.08.98s-.2.66-.29.99c-.14.5-.18.99-.08,1.5s.36.95.8,1.2c.69.39,1.34-.01,1.94-.36,1.29-.76,2.56-1.56,3.82-2.38,1.42-.94,2.82-1.91,4.18-2.93.43-.32.65-.87.36-1.37-.25-.43-.93-.68-1.37-.36h0Z"
       id="path18" />
    <path
       d="m7.64,10.17c1.29.36,2.55-.35,2.89-1.65.23-.9-.7-1.49-1.47-1.13-.46.21-.91.42-1.37.64l1.01,1.73c2-.94,4.13-1.56,6.33-1.83l-.27-1.96c-.45.11-.73.11-1.18,0v1.93c4.13-.97,8.21,1.34,10.65,4.59.52.7,1.96.6,1.86-.5-.19-2.11-1.9-2.44-3.12-3.82-.69-.79-1.13-1.36-2.24-1.51-1.35-.18-2.71-.18-4.06-.05-2.6.26-5.38.86-7.77,1.93-1.99.89-2.9,3.07-4.23,4.66-.7.84.17,2.17,1.21,1.57,2.84-1.63,5.65-3.33,8.43-5.07l-1.21-1.57c-1.09.89-2.57,1.12-3.74,1.87-1.06.67-1.88,1.87-3.15,2.11l1.13.46c.15.22,0-.54-.08-.73-.14-.3-.37-.55-.65-.73-.75-.47-1.52-.25-2.19.23-1.38,1.01-2,2.77-2.43,4.35l1.67-.44-.14-.18-1.96-.27c.18,1.54-.61,3.17-.71,4.73s.1,3.07.52,4.55c.35,1.24,2.28.71,1.93-.53-.42-1.47-.58-2.97-.4-4.5.17-1.43.84-2.79.67-4.25-.12-1.02-1.71-1.47-1.96-.27-.17.81,0,1.57.65,2.12.56.47,1.46.33,1.67-.44.24-.87.5-1.76,1-2.52.16-.24.77-.65.84-.87-.03.1-.41-.41-.39.21,0,.2.12.37.23.53.27.39.67.55,1.13.46,1.52-.29,2.4-1.51,3.63-2.31,1.34-.87,2.89-1.16,4.15-2.19.88-.72-.26-2.17-1.21-1.57-2.77,1.75-5.58,3.44-8.43,5.07l1.21,1.57c1.03-1.22,1.75-2.84,3.01-3.85.84-.68,2.08-.94,3.1-1.23s2.04-.55,3.08-.73c1.62-.28,4.93-.94,6.06.5.67.85,2.66,1.56,2.76,2.69l1.86-.5c-3-4-7.83-6.7-12.9-5.51-.96.23-.95,1.7,0,1.93.77.19,1.47.19,2.24,0,1.07-.26.87-2.11-.27-1.96-2.57.32-4.99,1.01-7.34,2.11-1.17.54-.15,2.27,1.01,1.73.46-.21.91-.42,1.37-.64l-1.47-1.13c-.04.26-.18.35-.42.26-1.24-.35-1.77,1.58-.53,1.93h0Z"
       id="path20" />
    <path
       d="m3.38,15.36c-.57,2.31-1.01,4.65-1.34,7.01-.07.53.13,1.07.7,1.23.49.14,1.12-.17,1.23-.7.54-2.63,2.64-4.57,4.55-6.3s3.55-3.89,5.94-5.07l-1.21-1.57c-3.04,3.23-6.39,6.15-9.55,9.25l1.67.44c-.22-1.34-.08-2.69.32-3.99h-1.93c.17.44.35.88.52,1.32.2.5.67.85,1.23.7.48-.13.9-.73.7-1.23-.17-.44-.35-.88-.52-1.32-.35-.89-1.62-1-1.93,0-.51,1.65-.59,3.35-.32,5.05.12.77,1.18.92,1.67.44,3.16-3.11,6.51-6.02,9.55-9.25.8-.85-.2-2.07-1.21-1.57-2.6,1.28-4.36,3.62-6.48,5.51s-4.34,4.17-4.93,7.05l1.93.53c.33-2.36.77-4.69,1.34-7.01.31-1.25-1.62-1.78-1.93-.53h0Z"
       id="path22" />
    <path
       d="m14.28,10.06l9.96,9.84c.5.49,1.54.32,1.67-.44.1-.59.31-1.08.73-1.51l-1.57-1.21c-.22.42-.44.84-.66,1.26l1.83.77c.27-.76.67-1.47.99-2.22.3-.7.72-1.64.51-2.41s-.74-1.51-1.15-2.21-1.03-1.07-1.84-1.24c-.75-.16-1.61-.26-2.29-.64s-1.26-.86-1.92-1.24c-1.48-.85-3.04-1.29-4.75-1-.73.13-.98,1.2-.44,1.67,2.97,2.61,5.94,5.22,8.91,7.82.64.56,1.7.2,1.71-.71,0-1.05.1-2.13.02-3.18-.07-.89-1.34-1.48-2.03-1.9-1.59-.99-3.3-1.77-5.08-2.36-.47-.16-1,.14-1.18.58-.2.5,0,.94.41,1.25l2.72,2.04,1.27.95c.3.22.78.49.9.87.4,1.22,2.33.7,1.93-.53s-1.58-1.87-2.55-2.61c-1.09-.82-2.18-1.64-3.26-2.45l-.77,1.83c2.21.74,4.26,1.82,6.13,3.2l-.5-.86c0,1.06-.01,2.12-.02,3.18l1.71-.71c-2.97-2.61-5.94-5.22-8.91-7.82l-.44,1.67c1.25-.21,2.41.32,3.46.94.54.33,1.05.71,1.6,1.04.62.37,1.35.56,2.05.72.45.1,1.18.08,1.44.49.17.27.32.56.49.84.13.22.39.54.43.8.03.22-.14.56-.21.77-.11.32-.26.63-.4.94-.3.64-.61,1.28-.85,1.95-.38,1.07,1.31,1.77,1.83.77.22-.42.44-.84.66-1.26.51-.97-.76-2.07-1.57-1.21-.64.67-1.08,1.48-1.24,2.4l1.67-.44-9.96-9.84c-.92-.91-2.33.51-1.41,1.41h0Z"
       id="path24" />
    <path
       d="m1.7,24.28c-.18,1.22.16,2.22.93,3.16.66.8,1.52,1.41,2.16,2.22l1.21-1.57-.5-.34-1.01,1.73c.56.36,1.08.76,1.57,1.21l.97-1.67c-.32-.09-.57-.22-.85-.4-1.07-.74-2.03.98-1.01,1.73,1.91,1.4,3.94,2.63,5.74,4.16l1.21-1.57c-1.29-.72-2.62-1.37-3.87-2.14-.77-.47-1.17-.79-1.54-1.5-.16-.3-.29-.69-.42-1.19-.18-.67-.32-1.36-.46-2.04-.35-1.77-.44-4.1-2.22-5.07-.96-.53-2.08.78-1.21,1.57,1.08.97,2.27,1.78,3.59,2.39.94.43,1.79-.43,1.37-1.37-.58-1.28-1.15-2.55-1.73-3.83l-1.37,1.37c1.84,1.32,3.49,2.88,5.09,4.48.78.78,1.55,1.56,2.33,2.34.39.39.78.77,1.18,1.15s1.01.76,1.26,1.22l-.14-.5v.17c.1-.24.2-.47.3-.71-.43.44-.9.84-1.38,1.22-.24.19-.49.38-.73.57-.11.09-.42.43-.54.46h.53c-.2-.04-.46-.32-.64-.42-.26-.15-.54-.29-.81-.41-.56-.25-1.13-.46-1.71-.66-1.07-.37-2.23-.68-3.14-1.38-.72-.55-1.1-1.35-1.31-2.21-.17-.68-.31-1.64.43-1.98l-1.37-.36c1.17,1.53,1.98,3.29,3.02,4.91.7,1.08,2.33.13,1.73-1.01-.83-1.57-1.59-3.17-2.27-4.81l-1.47,1.13c.95.45,1.87.98,2.69,1.64l1.21-1.57c-.38-.23-.73-.5-1-.86l-1.37,1.37c2.78,1.99,5.36,4.24,7.74,6.69l.97-1.67c-2.8-.53-4.98-2.44-7.11-4.2-.98-.8-2.38.53-1.41,1.41,1.74,1.59,3.48,3.18,5.22,4.77l.97-1.67c-1.51-.29-2.99-.72-4.4-1.34-.5-.22-1.07-.14-1.37.36-.25.42-.13,1.15.36,1.37,1.58.69,3.19,1.22,4.88,1.54.91.17,1.77-.95.97-1.67-1.74-1.59-3.48-3.18-5.22-4.77l-1.41,1.41c2.39,1.97,4.85,4.12,7.99,4.71.95.18,1.71-.92.97-1.67-2.5-2.58-5.23-4.91-8.14-7-.79-.57-1.96.58-1.37,1.37.48.64,1.02,1.16,1.72,1.58.95.56,2.13-.85,1.21-1.57-.97-.76-1.98-1.42-3.1-1.95-.69-.32-1.83.24-1.47,1.13.74,1.8,1.55,3.57,2.47,5.29l1.73-1.01c-1.04-1.62-1.85-3.38-3.02-4.91-.36-.46-.82-.61-1.37-.36-1.97.89-1.71,3.52-1.04,5.18.87,2.15,2.75,3.09,4.83,3.81,1.05.36,2.12.68,3.06,1.3.51.34.97.62,1.6.35s1.18-.91,1.71-1.32,1.04-.8,1.49-1.28c.58-.63.41-1.39-.14-1.97-.97-1.02-2.05-1.95-3.04-2.94-2.27-2.28-4.53-4.58-7.16-6.46-.9-.65-1.73.56-1.37,1.37.58,1.28,1.15,2.55,1.73,3.83l1.37-1.37c-1.17-.53-2.23-1.21-3.19-2.07l-1.21,1.57c.76.41.85,1.48.99,2.25.16.85.32,1.7.5,2.54.23,1.05.48,2.16,1.06,3.09.52.83,1.27,1.43,2.09,1.93,1.26.77,2.59,1.42,3.87,2.14.95.53,2.11-.81,1.21-1.57-1.94-1.64-4.1-2.98-6.15-4.48l-1.01,1.73c.41.28.85.47,1.32.6.94.26,1.72-.98.97-1.67-.61-.57-1.27-1.08-1.98-1.53-1.09-.7-2.07,1.02-1.01,1.73l.5.34c.41.28,1,.11,1.29-.26.33-.42.24-.92-.08-1.31-.51-.64-1.14-1.14-1.71-1.72-.44-.45-.98-1.03-.87-1.71.08-.54-.14-1.07-.7-1.23-.47-.14-1.15.17-1.23.7h0Z"
       id="path26" />
    <path
       d="m7.99,28.7c1.19.95,2.23,2.1,3.5,2.95,1.13.76,3.13,1.66,4.35.63.7-.59,1.26-1.43,1.88-2.12.67-.75,1.34-1.49,2.03-2.23,1.37-1.47,2.78-2.9,4.22-4.29.93-.9-.49-2.31-1.41-1.41-2.49,2.41-4.88,4.93-7.16,7.55-.25.28-.48.68-.77.9-.09.07-.25.06-.53-.01-.61-.14-1.16-.44-1.68-.8-1.09-.75-1.98-1.76-3.01-2.58-.43-.34-1-.41-1.41,0-.35.34-.42,1.08,0,1.41h0Z"
       id="path28" />
    <path
       d="m24.37,19.61c-.79.86-1.47,1.8-2,2.85l1.73,1.01c.1-.2.13-.27.32-.37l-1.37-1.37c-1.41,2.49-2.92,4.77-4.85,6.89-1.79,1.96-3.66,3.9-4.93,6.25-.61,1.13,1.11,2.14,1.73,1.01,1.28-2.36,3.18-4.24,4.96-6.22,1.91-2.13,3.42-4.44,4.83-6.93.49-.86-.5-1.88-1.37-1.37-.45.27-.8.61-1.03,1.09-.56,1.15,1.14,2.16,1.73,1.01.46-.89,1-1.7,1.68-2.44.87-.94-.54-2.36-1.41-1.41h0Z"
       id="path30" />
    <path
       d="m12.2,32.48v1.5c.5-.29,1-.58,1.5-.86-.09-.06-.09-.05.01.03-.04-.03-.08-.07-.11-.1.07.11.08.11.02.02-.03-.04-.05-.09-.07-.13.13.25-.02,0,0-.05.01.14.02.16,0,.04,0-.05,0-.1,0-.15-.02.14-.02.16,0,.04.04-.12.03-.1-.03.06,0,0,.09-.14.09-.15-.1.12-.11.15-.04.07.03-.03.06-.05.09-.08-.13.09-.15.11-.06.05.03-.02.07-.04.1-.06-.03.07-.21.07-.02.02.26-.08-.15-.02.02-.02.04,0,.08,0,.12,0,.11,0,.08,0-.1-.02,0,0,.15.05.16.04-.15-.07-.18-.08-.09-.03.09.06.06.04-.07-.06.03.03.06.05.08.08-.09-.13-.11-.14-.05-.05-.06-.12-.07-.21-.04-.35-.05.16,0,.1.13-.18.05-.05.12-.09.19-.11.14-.01.15-.02.04-.02-.05,0-.11,0-.16-.01-.08,0-.16-.02-.24-.02-.32,0-.69.06-.96.25-.48.34-.79.85-.76,1.45.02.44.21.79.32,1.2.01.04.02.09.03.13-.03-.1-.02-.2.02-.29.09-.5.51-.54,1.27-.13-.02-.04-.04-.08-.06-.12-.13-.28-.3-.49-.57-.66-.44-.28-1.12-.11-1.37.36-.28.52-.09,1.03.36,1.37-.22-.16.02.03.06.07.03.03.13.11.14.16-.08-.11-.09-.12-.03-.04.03.04.05.08.08.12.04.06.07.12.11.18.17.3.3.62.44.93.31.68.72,1.34,1.41,1.7.46.24,1.11.13,1.37-.36.24-.46.14-1.11-.36-1.37-.04-.02-.08-.04-.11-.06-.09-.06-.07-.04.05.05,0,0-.12-.11-.14-.13-.03-.03-.06-.06-.09-.09-.07-.08-.05-.06.04.05,0,0-.09-.14-.11-.16-.18-.28-.31-.59-.44-.89-.33-.75-.73-1.38-1.4-1.87l-1.01,1.73c-.42-.27-.25-.32-.2-.18.01.04.03.08.05.12.06.14.14.26.25.37.31.33.77.45,1.2.35.83-.19,1.14-1.07.94-1.82-.05-.17-.12-.34-.18-.5-.03-.09-.05-.18-.09-.27-.06-.18.03.06,0,.07s.06-.27,0-.06c-.03.08-.06.16-.1.24l-.04.05c.09-.08.07-.08-.07.01l-.12.06c.09-.02.1-.03.02,0-.14,0,.03.01.06.01.29.02.57.05.86-.03.7-.18,1.19-.88,1.13-1.6-.05-.59-.4-1.14-.93-1.42-.86-.45-2.02-.24-2.66.49-.91,1.04-.62,2.7.58,3.39.66.38,1.5-.1,1.5-.86v-1.5c0-.52-.46-1.02-1-1s-1,.44-1,1h0Z"
       id="path32" />
    <path
       d="m13.73,37.81c.04.76.29,1.59,1.1,1.85.76.24,1.45-.14,1.76-.84.58-1.34,1.34-2.63,2.24-3.79.45-.57.93-1.11,1.32-1.73.37-.58.67-1.21.95-1.84.57-1.3,1.03-2.65,1.66-3.93.57-1.15-1.15-2.16-1.73-1.01-.97,1.94-1.51,4.1-2.71,5.92-.62.94-1.4,1.76-2.02,2.71s-1.19,2.04-1.64,3.13l.26-.44c.62.39.9.38.81-.03-.07-1.28-2.07-1.29-2,0h0Z"
       id="path34" />
    <path
       d="m22.78,27.18c.05-.12.09-.25.14-.37l-.1.24c.27-.64.62-1.24,1.04-1.79l-.16.2c.11-.14.22-.28.34-.41.18-.2.29-.43.29-.71,0-.25-.11-.54-.29-.71s-.44-.3-.71-.29-.53.09-.71.29c-.78.89-1.37,1.89-1.78,3-.08.23-.02.56.1.77s.36.41.6.46c.26.06.54.05.77-.1s.37-.34.46-.6h0Z"
       id="path36" />
    <path
       d="m18.93,34.19c-.33.06-.09.02,0,.02.07,0,.15,0,.22.02.16.01.31.02.47,0,.69-.06,1.24-.5,1.34-1.2.15-1.14-.38-2.26-1.32-2.91-.59-.41-1.4-.51-1.92.09-.35.41-.54.99-.78,1.47s-.47.94-.76,1.37c-.06.1-.13.19-.2.29.09-.12-.1.12-.13.15-.16.19-.34.36-.52.52-.83.76-1.67,1.47-1.95,2.61l.26-.44.12-.09.77-.1h-.04c.23.22.47.45.7.69l-.02-.05c-.19-.49-.68-.88-1.23-.7-.47.15-.9.71-.7,1.23.14.36.36.67.76.76.38.09.77-.03,1.04-.3.19-.2.28-.44.34-.7.05-.21-.07.1.03-.07.04-.07.08-.15.13-.22.02-.03.18-.23.04-.07.06-.07.11-.13.17-.19.11-.12.23-.23.34-.34.25-.23.51-.45.76-.69.59-.55,1.06-1.22,1.45-1.93.18-.33.34-.66.51-1,.09-.18.18-.37.27-.55.04-.09.11-.18.14-.27.06-.19,0,0-.09.05l-.5.14c-.29-.12-.36-.14-.19-.06l.07.04c.07.04.2.15.07.04.06.06.12.11.18.18.17.18-.08-.15.05.07.04.07.08.15.13.22-.1-.16,0,.01.02.08.03.08.04.16.06.25-.05-.22,0,.02,0,.07,0,.09-.08.27,0,.05s.24-.38.46-.45c-.17.05.25,0,.04,0-.06,0-.13,0-.19,0-.32-.01-.6-.03-.92.02-.52.09-.85.75-.7,1.23.18.56.68.79,1.23.7h0Z"
       id="path38" />
    <path
       class="cls-3"
       d="m50.86,34.73c0,3.04-3.13,5.5-7,5.5-9.27-.27-9.27-10.73,0-11,3.87,0,7,2.46,7,5.5Z"
       id="path40" />
    <path
       class="cls-3"
       d="m47.73,34.84c-.15,4.31-8.11,4.31-8.26,0,.15-4.31,8.11-4.31,8.26,0Z"
       id="path42" />
    <path
       d="m50.26,34.49c-.04-.81-.46-1.37-.93-1.99-.41-.54-.88-1-1.42-1.4-.47-.34-.97-.62-1.49-.88-.75-.37-1.49-.49-2.32-.57s-1.49-.22-2.25.09c-.59.23-1.24.46-1.77.8s-1.03.8-1.41,1.34c-.17.24-.32.5-.44.77s-.22.49-.18.78c.02.17.12.33.1.48l.14-.5-.08.15c-.6,1.14,1.12,2.15,1.73,1.01.27-.52.27-1,.06-1.53v.53c.27-.67.84-1.24,1.5-1.52.24-.1.5-.16.74-.28.19-.1.39-.23.62-.24.48-.04,1.05.11,1.53.16.86.09,1.64.52,2.35,1.02.32.23.61.51.86.8.19.22.66.68.67.98.07,1.28,2.07,1.29,2,0h0Z"
       id="path44" />
    <path
       d="m38.97,30.57c-1.01,1.13-1.89,2.5-1.97,4.05-.04.8.19,1.58.74,2.16.19.21.42.38.62.57.04.04.09.09.13.13.05.06.11.16.04.05.03.05.07.1.09.16-.08-.19,0,.09,0,.12l1.23-1.23c-.14-.04-.04.01-.1-.04-.13-.1.12.14-.07-.09l-1.21,1.57c.96.66,2.07,1.04,3.17,1.37l.27-1.96c-.41,0-.83,0-1.24,0-.54,0-1,.46-1,1s.46.97,1,1c1.14.06,2.28.13,3.42.19.54.03,1-.48,1-1,0-.57-.46-.97-1-1-1.14-.06-2.28-.13-3.42-.19v2c.41,0,.83,0,1.24,0,1.14,0,1.34-1.64.27-1.96-.96-.29-1.87-.6-2.69-1.17-.41-.28-1.01-.11-1.29.26-.31.42-.26.93.08,1.31.27.32.65.54,1.06.64.8.21,1.34-.49,1.23-1.23-.09-.61-.5-1.09-.94-1.49-.18-.17-.35-.35-.54-.52.04.04.04.07.06.12-.02-.07-.05-.14-.07-.21s-.04-.14-.05-.22c.02.13,0-.07,0-.12-.01-.49.14-.98.39-1.45.3-.56.61-.98.99-1.41.36-.4.4-1.02,0-1.41-.37-.37-1.05-.4-1.41,0h0Z"
       id="path46" />
    <path
       d="m42.16,39.97c1.7.09,3.6.12,5.02-.97s2.54-2.59,2.58-4.41h-2c.03.34.04.69.02,1.03,0,.02-.04.32,0,.11-.01.08-.03.16-.04.24-.04.17-.08.34-.14.5,0,.02-.1.25-.05.14s-.06.11-.07.13c-.04.08-.09.16-.14.24-.02.04-.19.24-.06.09-.1.11-.21.23-.33.32.16-.12-.37.19-.21.13l.77,1.83c1.54-1.13,3.23-2.68,3-4.79-.06-.54-.42-1-1-1-.5,0-1.06.46-1,1,.02.19.03.39.01.58,0,.07,0,.07,0-.01l-.02.1c-.03.1-.05.19-.08.29l-.03.1c.03-.07.03-.07,0,0-.04.08-.08.15-.12.23-.08.13-.22.35-.27.41-.15.2-.48.52-.72.74-.13.12-.27.23-.4.34,0,0-.24.19-.12.1-.08.06-.16.12-.24.18-.4.3-.62.76-.41,1.25.18.41.71.77,1.18.58,1.03-.43,1.74-1.15,2.16-2.19.34-.84.43-1.78.34-2.68-.05-.54-.42-1-1-1s-.99.46-1,1c0,.32-.03.46-.15.8-.08.22-.22.49-.39.75s-.32.43-.55.67-.48.46-.68.6c-1.06.76-2.52.63-3.83.56-.54-.03-1,.48-1,1,0,.57.46.97,1,1h0Z"
       id="path48" />
    <path
       d="m50.87,34.44c.28-.8-.33-1.43-.86-1.92-.39-.37-.81-.72-1.23-1.05-.9-.7-1.84-1.34-2.85-1.88l-.77,1.83c.11.04.21.08.32.12.12.04-.17-.08,0,0,.05.02.09.04.14.06.22.1.43.22.64.34.2.12.39.24.57.37.04.03.08.06.12.09.1.07-.14-.11,0,0,.1.08.2.16.29.24.39.34,1.03.42,1.41,0,.35-.38.42-1.05,0-1.41-.88-.77-1.87-1.35-2.98-1.75-.47-.17-1,.15-1.18.58s-.03,1.01.41,1.25c.84.45,1.64.96,2.4,1.53.04.03.09.06.13.1-.06-.05-.1-.08-.02-.01.09.07.19.15.28.22.18.15.36.3.54.46s.35.32.52.48c.08.08.17.16.25.24.09.09.02.02-.02-.03.06.11.05.08,0-.1-.04-.1-.06-.2-.04-.3-.17.49.2,1.12.7,1.23.56.13,1.05-.17,1.23-.7h0Z"
       id="path50" />
    <path
       d="m12.26,7.9c1.29,0,1.29-2,0-2s-1.29,2,0,2h0Z"
       id="path52" />
    <path
       d="m6.86,10.39c1.29,0,1.29-2,0-2s-1.29,2,0,2h0Z"
       id="path54" />
    <path
       d="m4.56,12.73c1.29,0,1.29-2,0-2s-1.29,2,0,2h0Z"
       id="path56" />
  </g>
</svg>
