<?xml version="1.0" encoding="UTF-8" standalone="no"?>
<svg
   id="Calque_2"
   data-name="Calque 2"
   viewBox="0 0 54.47 35.68"
   version="1.1"
   sodipodi:docname="Push_icon_white.svg"
   inkscape:version="1.1.2 (b8e25be833, 2022-02-05)"
   xmlns:inkscape="http://www.inkscape.org/namespaces/inkscape"
   xmlns:sodipodi="http://sodipodi.sourceforge.net/DTD/sodipodi-0.dtd"
   xmlns="http://www.w3.org/2000/svg"
   xmlns:svg="http://www.w3.org/2000/svg">
  <sodipodi:namedview
     id="namedview18"
     pagecolor="#ffffff"
     bordercolor="#666666"
     borderopacity="1.0"
     inkscape:pageshadow="2"
     inkscape:pageopacity="0.0"
     inkscape:pagecheckerboard="0"
     showgrid="false"
     inkscape:zoom="19.955939"
     inkscape:cx="27.235001"
     inkscape:cy="17.839301"
     inkscape:window-width="1920"
     inkscape:window-height="1017"
     inkscape:window-x="-8"
     inkscape:window-y="-8"
     inkscape:window-maximized="1"
     inkscape:current-layer="Calque_2" />
  <defs
     id="defs4">
    <style
       id="style2">
      .cls-1 {
        stroke: #000;
        stroke-miterlimit: 10;
      }
    </style>
    <filter
       style="color-interpolation-filters:sRGB;"
       inkscape:label="Fade to Black or White"
       id="filter837"
       x="-0.018331975"
       y="-0.014417532"
       width="1.0277659"
       height="1.0288351">
      <feColorMatrix
         values="0 0 0 0 1 0 0 0 0 1 0 0 0 0 1 0 0 0 1 0"
         id="feColorMatrix835" />
    </filter>
  </defs>
  <g
     id="Calque_1-2"
     data-name="Calque 1"
     style="filter:url(#filter837)">
    <polygon
       class="cls-1"
       points="5.97 28.18 5.97 .5 12.67 .5 12.67 4.34 12.67 28.18 17.97 35.18 .97 35.18 5.97 28.18"
       id="polygon6" />
    <polygon
       class="cls-1"
       points="14.97 4.18 14.97 5.3 17.61 5.3 17.61 6.4 26.97 6.4 29.97 3.18 32.97 3.18 37.97 8.18 37.97 9.13 29.93 17.84 28.82 17.84 22.97 13.18 22.97 11.18 23.97 11.18 23.95 10.51 19.75 10.51 19.97 9.18 16.97 9.18 17.02 10.51 16.06 10.51 15.97 10.18 12.96 10.16 12.97 4.18 14.97 4.18"
       id="polygon8" />
    <polygon
       class="cls-1"
       points="21.97 4.18 24.62 4.18 25.97 2.93 24.97 1.68 21.97 4.18"
       id="polygon10" />
    <polygon
       class="cls-1"
       points="27.97 24.18 39.97 11.18 41.97 13.18 41.97 16.18 40.97 18.18 39.97 19.18 38.97 19.18 36.97 20.18 32.97 25.18 34.97 25.18 39.97 31.18 40.11 35.18 30.08 35.18 29.97 31.18 31.97 31.18 27.97 24.18"
       id="polygon12" />
    <polygon
       class="cls-1"
       points="39.97 21.18 40.97 21.18 41.97 20.18 43.65 20.18 45.42 23.18 50.59 23.18 53.97 26.18 53.97 28.18 50.97 34.18 49.04 34.18 46.97 33.77 46.97 32.44 48.97 30.18 45.13 27.18 43.97 27.18 40.92 23.18 39.97 23.18 39.97 21.18"
       id="polygon14" />
  </g>
</svg>
