<?xml version="1.0" encoding="UTF-8"?>
<svg id="Calque_2" data-name="Calque 2" xmlns="http://www.w3.org/2000/svg" viewBox="0 0 54.47 35.68">
  <defs>
    <style>
      .cls-1 {
        stroke: #000;
        stroke-miterlimit: 10;
      }
    </style>
  </defs>
  <g id="Calque_1-2" data-name="Calque 1">
    <polygon class="cls-1" points="5.97 28.18 5.97 .5 12.67 .5 12.67 4.34 12.67 28.18 17.97 35.18 .97 35.18 5.97 28.18"/>
    <polygon class="cls-1" points="14.97 4.18 14.97 5.3 17.61 5.3 17.61 6.4 26.97 6.4 29.97 3.18 32.97 3.18 37.97 8.18 37.97 9.13 29.93 17.84 28.82 17.84 22.97 13.18 22.97 11.18 23.97 11.18 23.95 10.51 19.75 10.51 19.97 9.18 16.97 9.18 17.02 10.51 16.06 10.51 15.97 10.18 12.96 10.16 12.97 4.18 14.97 4.18"/>
    <polygon class="cls-1" points="21.97 4.18 24.62 4.18 25.97 2.93 24.97 1.68 21.97 4.18"/>
    <polygon class="cls-1" points="27.97 24.18 39.97 11.18 41.97 13.18 41.97 16.18 40.97 18.18 39.97 19.18 38.97 19.18 36.97 20.18 32.97 25.18 34.97 25.18 39.97 31.18 40.11 35.18 30.08 35.18 29.97 31.18 31.97 31.18 27.97 24.18"/>
    <polygon class="cls-1" points="39.97 21.18 40.97 21.18 41.97 20.18 43.65 20.18 45.42 23.18 50.59 23.18 53.97 26.18 53.97 28.18 50.97 34.18 49.04 34.18 46.97 33.77 46.97 32.44 48.97 30.18 45.13 27.18 43.97 27.18 40.92 23.18 39.97 23.18 39.97 21.18"/>
  </g>
</svg>